<svg width="1280" height="164" viewBox="0 0 1280 164" fill="none" xmlns="http://www.w3.org/2000/svg">
<rect width="1281" height="164" fill="#5D5FEF"/>
<path d="M79.1114 53.152V68.64C79.1114 72.608 78.1514 76.544 71.5914 76.544C66.7594 76.544 64.7754 73.376 64.7754 69.216V68H68.7754V69.184C68.7754 71.776 69.4794 73.28 71.9114 73.28C74.5034 73.28 75.1114 71.712 75.1114 68.864V53.152H79.1114ZM91.0509 73.568C94.3149 73.568 95.7549 70.592 95.7549 67.712C95.7549 64.864 94.3149 61.888 91.0509 61.888C87.7869 61.888 86.3469 64.864 86.3469 67.712C86.3469 70.592 87.7869 73.568 91.0509 73.568ZM91.0509 76.448C85.7389 76.448 82.6989 72.8 82.6989 67.712C82.6989 62.656 85.7389 59.008 91.0509 59.008C96.3629 59.008 99.4029 62.656 99.4029 67.712C99.4029 72.8 96.3629 76.448 91.0509 76.448ZM102.532 76V59.456H106.18V76H102.532ZM102.532 56.608V53.152H106.18V56.608H102.532ZM110.154 76V59.456H113.61V61.888L113.674 61.952C114.762 60.128 116.65 59.008 118.826 59.008C122.41 59.008 124.682 60.928 124.682 64.64V76H121.034V65.6C120.97 63.008 119.946 61.888 117.802 61.888C115.37 61.888 113.802 63.808 113.802 66.24V76H110.154ZM145.02 73.568C148.284 73.568 149.724 70.592 149.724 67.712C149.724 64.864 148.284 61.888 145.02 61.888C141.756 61.888 140.316 64.864 140.316 67.712C140.316 70.592 141.756 73.568 145.02 73.568ZM145.02 76.448C139.708 76.448 136.668 72.8 136.668 67.712C136.668 62.656 139.708 59.008 145.02 59.008C150.332 59.008 153.372 62.656 153.372 67.712C153.372 72.8 150.332 76.448 145.02 76.448ZM170.932 59.456V76H167.348V73.696H167.284C166.388 75.36 164.404 76.448 162.58 76.448C158.26 76.448 156.404 74.272 156.404 69.952V59.456H160.052V69.6C160.052 72.512 161.236 73.568 163.22 73.568C166.26 73.568 167.284 71.616 167.284 69.056V59.456H170.932ZM174.779 76V59.456H178.203V62.656H178.267C178.683 60.896 180.859 59.008 183.099 59.008C183.931 59.008 184.155 59.072 184.475 59.104V62.624C183.963 62.56 183.419 62.464 182.907 62.464C180.411 62.464 178.427 64.48 178.427 68.128V76H174.779ZM209.944 68.672H197.784C197.784 71.264 199.192 73.568 202.232 73.568C204.344 73.568 205.624 72.64 206.264 70.816H209.72C208.92 74.432 205.848 76.448 202.232 76.448C197.048 76.448 194.136 72.832 194.136 67.744C194.136 63.04 197.208 59.008 202.136 59.008C207.352 59.008 210.552 63.712 209.944 68.672ZM197.784 66.272H206.296C206.168 63.968 204.6 61.888 202.136 61.888C199.608 61.888 197.88 63.808 197.784 66.272ZM210.925 76L217.165 67.296L211.437 59.456H215.853L219.309 64.544L222.925 59.456H227.149L221.517 67.104L227.853 76H223.469L219.277 69.888L215.213 76H210.925ZM244.72 64.992H241.072C240.784 62.976 239.312 61.888 237.296 61.888C235.408 61.888 232.752 62.88 232.752 67.904C232.752 70.656 233.968 73.568 237.136 73.568C239.248 73.568 240.72 72.16 241.072 69.792H244.72C244.048 74.08 241.392 76.448 237.136 76.448C231.952 76.448 229.104 72.768 229.104 67.904C229.104 62.912 231.824 59.008 237.264 59.008C241.104 59.008 244.368 60.928 244.72 64.992ZM247.782 76V53.152H251.43V76H247.782ZM269.932 59.456V76H266.348V73.696H266.284C265.388 75.36 263.404 76.448 261.58 76.448C257.26 76.448 255.404 74.272 255.404 69.952V59.456H259.052V69.6C259.052 72.512 260.236 73.568 262.22 73.568C265.26 73.568 266.284 71.616 266.284 69.056V59.456H269.932ZM272.883 70.688H276.531C276.723 72.8 278.323 73.568 280.275 73.568C281.651 73.568 284.051 73.28 283.955 71.392C283.859 69.472 281.203 69.248 278.547 68.64C275.859 68.064 273.235 67.104 273.235 63.744C273.235 60.128 277.139 59.008 280.147 59.008C283.539 59.008 286.611 60.416 287.059 64.096H283.251C282.931 62.368 281.491 61.888 279.891 61.888C278.835 61.888 276.883 62.144 276.883 63.584C276.883 65.376 279.571 65.632 282.259 66.24C284.915 66.848 287.603 67.808 287.603 71.072C287.603 75.008 283.635 76.448 280.211 76.448C276.051 76.448 272.947 74.592 272.883 70.688ZM290.469 76V59.456H294.117V76H290.469ZM290.469 56.608V53.152H294.117V56.608H290.469ZM302.476 76L296.46 59.456H300.428L304.62 72.16H304.684L308.716 59.456H312.492L306.572 76H302.476ZM329.694 68.672H317.534C317.534 71.264 318.942 73.568 321.982 73.568C324.094 73.568 325.374 72.64 326.014 70.816H329.47C328.67 74.432 325.598 76.448 321.982 76.448C316.798 76.448 313.886 72.832 313.886 67.744C313.886 63.04 316.958 59.008 321.886 59.008C327.102 59.008 330.302 63.712 329.694 68.672ZM317.534 66.272H326.046C325.918 63.968 324.35 61.888 321.886 61.888C319.358 61.888 317.63 63.808 317.534 66.272ZM345.885 56.416V63.968H351.741C353.533 63.968 355.741 63.072 355.741 60.192C355.741 57.184 353.917 56.416 351.805 56.416H345.885ZM341.885 76V53.152H351.965C358.493 53.152 359.741 57.376 359.741 60.224C359.741 63.04 358.493 67.264 351.965 67.232H345.885V76H341.885ZM372.925 70.432V67.712C371.805 68.448 370.045 68.416 368.445 68.704C366.877 68.96 365.469 69.536 365.469 71.456C365.469 73.088 367.549 73.568 368.829 73.568C370.429 73.568 372.925 72.736 372.925 70.432ZM376.573 63.808V72.32C376.573 73.216 376.765 73.568 377.437 73.568C377.661 73.568 377.949 73.568 378.333 73.504V76.032C377.789 76.224 376.637 76.448 376.029 76.448C374.557 76.448 373.501 75.936 373.213 74.432C371.773 75.84 369.437 76.448 367.485 76.448C364.509 76.448 361.821 74.848 361.821 71.616C361.821 67.488 365.117 66.816 368.189 66.464C370.813 65.984 373.149 66.272 373.149 64.128C373.149 62.24 371.197 61.888 369.725 61.888C367.677 61.888 366.237 62.72 366.077 64.512H362.429C362.685 60.256 366.301 59.008 369.949 59.008C373.181 59.008 376.573 60.32 376.573 63.808ZM378.834 62.176V59.456H381.586V54.496H385.234V59.456H388.53V62.176H385.234V71.008C385.234 72.512 385.362 73.28 386.994 73.28C387.506 73.28 388.018 73.28 388.53 73.152V75.968C387.73 76.032 386.962 76.16 386.162 76.16C382.354 76.16 381.65 74.688 381.586 71.936V62.176H378.834ZM391.154 76V59.456H394.578V62.656H394.642C395.058 60.896 397.234 59.008 399.474 59.008C400.306 59.008 400.53 59.072 400.85 59.104V62.624C400.338 62.56 399.794 62.464 399.282 62.464C396.786 62.464 394.802 64.48 394.802 68.128V76H391.154ZM402.5 76V59.456H406.148V76H402.5ZM402.5 56.608V53.152H406.148V56.608H402.5ZM424.939 64.992H421.291C421.003 62.976 419.531 61.888 417.515 61.888C415.627 61.888 412.971 62.88 412.971 67.904C412.971 70.656 414.187 73.568 417.355 73.568C419.467 73.568 420.939 72.16 421.291 69.792H424.939C424.267 74.08 421.611 76.448 417.355 76.448C412.171 76.448 409.323 72.768 409.323 67.904C409.323 62.912 412.043 59.008 417.483 59.008C421.323 59.008 424.587 60.928 424.939 64.992ZM428 76V53.152H431.648V76H428ZM450.151 59.456V76H446.567V73.696H446.503C445.607 75.36 443.623 76.448 441.799 76.448C437.479 76.448 435.623 74.272 435.623 69.952V59.456H439.271V69.6C439.271 72.512 440.455 73.568 442.439 73.568C445.479 73.568 446.503 71.616 446.503 69.056V59.456H450.151ZM466.83 67.744C466.83 64.736 465.262 61.888 462.254 61.888C459.182 61.888 457.614 64.224 457.614 67.744C457.614 71.072 459.31 73.568 462.254 73.568C465.582 73.568 466.83 70.624 466.83 67.744ZM454.094 76V53.152H457.742V61.6H457.806C458.798 60 460.878 59.008 462.734 59.008C467.95 59.008 470.478 62.976 470.478 67.808C470.478 72.256 468.238 76.448 463.342 76.448C461.102 76.448 458.702 75.904 457.614 73.728H457.55V76H454.094ZM482.467 76V59.456H485.923V61.888L485.987 61.952C487.075 60.128 488.963 59.008 491.139 59.008C494.723 59.008 496.995 60.928 496.995 64.64V76H493.347V65.6C493.283 63.008 492.259 61.888 490.115 61.888C487.683 61.888 486.115 63.808 486.115 66.24V76H482.467ZM515.85 68.672H503.69C503.69 71.264 505.098 73.568 508.138 73.568C510.25 73.568 511.53 72.64 512.17 70.816H515.626C514.826 74.432 511.754 76.448 508.138 76.448C502.954 76.448 500.042 72.832 500.042 67.744C500.042 63.04 503.114 59.008 508.042 59.008C513.258 59.008 516.458 63.712 515.85 68.672ZM503.69 66.272H512.202C512.074 63.968 510.506 61.888 508.042 61.888C505.514 61.888 503.786 63.808 503.69 66.272ZM522.239 76L517.119 59.456H520.991L524.223 71.808H524.287L527.391 59.456H531.071L534.047 71.808H534.111L537.471 59.456H541.183L535.999 76H532.255L529.183 63.712H529.119L526.079 76H522.239ZM542.633 70.688H546.281C546.473 72.8 548.073 73.568 550.025 73.568C551.401 73.568 553.801 73.28 553.705 71.392C553.609 69.472 550.953 69.248 548.297 68.64C545.609 68.064 542.985 67.104 542.985 63.744C542.985 60.128 546.889 59.008 549.897 59.008C553.289 59.008 556.361 60.416 556.809 64.096H553.001C552.681 62.368 551.241 61.888 549.641 61.888C548.585 61.888 546.633 62.144 546.633 63.584C546.633 65.376 549.321 65.632 552.009 66.24C554.665 66.848 557.353 67.808 557.353 71.072C557.353 75.008 553.385 76.448 549.961 76.448C545.801 76.448 542.697 74.592 542.633 70.688ZM560.219 76V53.152H563.867V76H560.219ZM582.85 68.672H570.69C570.69 71.264 572.098 73.568 575.138 73.568C577.25 73.568 578.53 72.64 579.17 70.816H582.626C581.826 74.432 578.754 76.448 575.138 76.448C569.954 76.448 567.042 72.832 567.042 67.744C567.042 63.04 570.114 59.008 575.042 59.008C580.258 59.008 583.458 63.712 582.85 68.672ZM570.69 66.272H579.202C579.074 63.968 577.506 61.888 575.042 61.888C572.514 61.888 570.786 63.808 570.69 66.272ZM583.959 62.176V59.456H586.711V54.496H590.359V59.456H593.655V62.176H590.359V71.008C590.359 72.512 590.487 73.28 592.119 73.28C592.631 73.28 593.143 73.28 593.655 73.152V75.968C592.855 76.032 592.087 76.16 591.287 76.16C587.479 76.16 586.775 74.688 586.711 71.936V62.176H583.959ZM594.615 62.176V59.456H597.367V54.496H601.015V59.456H604.311V62.176H601.015V71.008C601.015 72.512 601.143 73.28 602.775 73.28C603.287 73.28 603.799 73.28 604.311 73.152V75.968C603.511 76.032 602.743 76.16 601.943 76.16C598.135 76.16 597.431 74.688 597.367 71.936V62.176H594.615ZM621.944 68.672H609.784C609.784 71.264 611.192 73.568 614.232 73.568C616.344 73.568 617.624 72.64 618.264 70.816H621.72C620.92 74.432 617.848 76.448 614.232 76.448C609.048 76.448 606.136 72.832 606.136 67.744C606.136 63.04 609.208 59.008 614.136 59.008C619.352 59.008 622.552 63.712 621.944 68.672ZM609.784 66.272H618.296C618.168 63.968 616.6 61.888 614.136 61.888C611.608 61.888 609.88 63.808 609.784 66.272ZM624.717 76V59.456H628.141V62.656H628.205C628.621 60.896 630.797 59.008 633.037 59.008C633.869 59.008 634.093 59.072 634.413 59.104V62.624C633.901 62.56 633.357 62.464 632.845 62.464C630.349 62.464 628.365 64.48 628.365 68.128V76H624.717ZM644.969 76V53.152H648.617V76H644.969ZM652.688 76V59.456H656.336V76H652.688ZM652.688 56.608V53.152H656.336V56.608H652.688ZM659.415 70.688H663.063C663.255 72.8 664.855 73.568 666.807 73.568C668.183 73.568 670.583 73.28 670.487 71.392C670.391 69.472 667.735 69.248 665.079 68.64C662.391 68.064 659.767 67.104 659.767 63.744C659.767 60.128 663.671 59.008 666.679 59.008C670.071 59.008 673.143 60.416 673.591 64.096H669.783C669.463 62.368 668.023 61.888 666.423 61.888C665.367 61.888 663.415 62.144 663.415 63.584C663.415 65.376 666.103 65.632 668.791 66.24C671.447 66.848 674.135 67.808 674.135 71.072C674.135 75.008 670.167 76.448 666.743 76.448C662.583 76.448 659.479 74.592 659.415 70.688ZM675.24 62.176V59.456H677.992V54.496H681.64V59.456H684.936V62.176H681.64V71.008C681.64 72.512 681.768 73.28 683.4 73.28C683.912 73.28 684.424 73.28 684.936 73.152V75.968C684.136 76.032 683.368 76.16 682.568 76.16C678.76 76.16 678.056 74.688 677.992 71.936V62.176H675.24Z" fill="white"/>
<path d="M67.1809 102.98H71.8609C72.4075 102.98 72.8809 102.92 73.2809 102.8C73.6809 102.667 74.0142 102.493 74.2809 102.28C74.5475 102.053 74.7475 101.793 74.8809 101.5C75.0142 101.207 75.0809 100.893 75.0809 100.56C75.0809 98.7733 74.0075 97.88 71.8609 97.88H67.1809V102.98ZM65.8209 96.72H71.8609C72.4609 96.72 73.0342 96.78 73.5809 96.9C74.1409 97.0067 74.6275 97.2 75.0409 97.48C75.4675 97.7467 75.8075 98.1067 76.0609 98.56C76.3142 99 76.4409 99.5533 76.4409 100.22C76.4409 100.593 76.3809 100.96 76.2609 101.32C76.1409 101.667 75.9675 101.987 75.7409 102.28C75.5275 102.56 75.2675 102.8 74.9609 103C74.6675 103.2 74.3342 103.34 73.9609 103.42V103.46C74.8809 103.58 75.6142 103.96 76.1609 104.6C76.7075 105.227 76.9809 106.007 76.9809 106.94C76.9809 107.167 76.9609 107.427 76.9209 107.72C76.8809 108 76.8009 108.293 76.6809 108.6C76.5609 108.893 76.3875 109.187 76.1609 109.48C75.9342 109.773 75.6275 110.033 75.2409 110.26C74.8675 110.473 74.4009 110.653 73.8409 110.8C73.2942 110.933 72.6342 111 71.8609 111H65.8209V96.72ZM67.1809 109.84H71.8609C72.3675 109.84 72.8475 109.8 73.3009 109.72C73.7542 109.627 74.1542 109.467 74.5009 109.24C74.8475 109.013 75.1209 108.713 75.3209 108.34C75.5209 107.953 75.6209 107.473 75.6209 106.9C75.6209 105.98 75.2942 105.293 74.6409 104.84C74.0009 104.373 73.0742 104.14 71.8609 104.14H67.1809V109.84ZM86.3407 105.12C86.3274 104.64 86.2407 104.18 86.0807 103.74C85.934 103.3 85.7207 102.913 85.4407 102.58C85.1607 102.233 84.8207 101.96 84.4207 101.76C84.0207 101.547 83.5674 101.44 83.0607 101.44C82.5407 101.44 82.0807 101.547 81.6807 101.76C81.2807 101.96 80.9407 102.233 80.6607 102.58C80.3807 102.913 80.154 103.307 79.9807 103.76C79.8207 104.2 79.714 104.653 79.6607 105.12H86.3407ZM79.6607 106.18C79.6607 106.633 79.7207 107.107 79.8407 107.6C79.974 108.08 80.1807 108.513 80.4607 108.9C80.7407 109.287 81.094 109.607 81.5207 109.86C81.9474 110.113 82.4607 110.24 83.0607 110.24C83.9807 110.24 84.7007 110 85.2207 109.52C85.7407 109.04 86.1007 108.4 86.3007 107.6H87.5607C87.294 108.773 86.8007 109.68 86.0807 110.32C85.374 110.96 84.3674 111.28 83.0607 111.28C82.2474 111.28 81.5407 111.14 80.9407 110.86C80.354 110.567 79.874 110.173 79.5007 109.68C79.1274 109.173 78.8474 108.593 78.6607 107.94C78.4874 107.273 78.4007 106.573 78.4007 105.84C78.4007 105.16 78.4874 104.493 78.6607 103.84C78.8474 103.187 79.1274 102.607 79.5007 102.1C79.874 101.58 80.354 101.167 80.9407 100.86C81.5407 100.54 82.2474 100.38 83.0607 100.38C83.8874 100.38 84.594 100.547 85.1807 100.88C85.7674 101.213 86.2407 101.653 86.6007 102.2C86.974 102.733 87.2407 103.353 87.4007 104.06C87.5607 104.753 87.6274 105.46 87.6007 106.18H79.6607ZM96.8582 100.68H98.9582V101.74H96.8582V108.7C96.8582 109.113 96.9115 109.44 97.0182 109.68C97.1382 109.907 97.4249 110.033 97.8782 110.06C98.2382 110.06 98.5982 110.04 98.9582 110V111.06C98.7715 111.06 98.5849 111.067 98.3982 111.08C98.2115 111.093 98.0249 111.1 97.8382 111.1C96.9982 111.1 96.4115 110.94 96.0782 110.62C95.7449 110.287 95.5849 109.68 95.5982 108.8V101.74H93.7982V100.68H95.5982V97.58H96.8582V100.68ZM100.756 96.72H102.016V102.46H102.056C102.296 101.833 102.723 101.333 103.336 100.96C103.95 100.573 104.623 100.38 105.356 100.38C106.076 100.38 106.676 100.473 107.156 100.66C107.65 100.847 108.043 101.113 108.336 101.46C108.63 101.793 108.836 102.207 108.956 102.7C109.076 103.193 109.136 103.747 109.136 104.36V111H107.876V104.56C107.876 104.12 107.836 103.713 107.756 103.34C107.676 102.953 107.536 102.62 107.336 102.34C107.136 102.06 106.863 101.84 106.516 101.68C106.183 101.52 105.763 101.44 105.256 101.44C104.75 101.44 104.296 101.533 103.896 101.72C103.51 101.893 103.176 102.14 102.896 102.46C102.63 102.767 102.416 103.14 102.256 103.58C102.11 104.007 102.03 104.473 102.016 104.98V111H100.756V96.72ZM118.938 105.12C118.925 104.64 118.838 104.18 118.678 103.74C118.532 103.3 118.318 102.913 118.038 102.58C117.758 102.233 117.418 101.96 117.018 101.76C116.618 101.547 116.165 101.44 115.658 101.44C115.138 101.44 114.678 101.547 114.278 101.76C113.878 101.96 113.538 102.233 113.258 102.58C112.978 102.913 112.752 103.307 112.578 103.76C112.418 104.2 112.312 104.653 112.258 105.12H118.938ZM112.258 106.18C112.258 106.633 112.318 107.107 112.438 107.6C112.572 108.08 112.778 108.513 113.058 108.9C113.338 109.287 113.692 109.607 114.118 109.86C114.545 110.113 115.058 110.24 115.658 110.24C116.578 110.24 117.298 110 117.818 109.52C118.338 109.04 118.698 108.4 118.898 107.6H120.158C119.892 108.773 119.398 109.68 118.678 110.32C117.972 110.96 116.965 111.28 115.658 111.28C114.845 111.28 114.138 111.14 113.538 110.86C112.952 110.567 112.472 110.173 112.098 109.68C111.725 109.173 111.445 108.593 111.258 107.94C111.085 107.273 110.998 106.573 110.998 105.84C110.998 105.16 111.085 104.493 111.258 103.84C111.445 103.187 111.725 102.607 112.098 102.1C112.472 101.58 112.952 101.167 113.538 100.86C114.138 100.54 114.845 100.38 115.658 100.38C116.485 100.38 117.192 100.547 117.778 100.88C118.365 101.213 118.838 101.653 119.198 102.2C119.572 102.733 119.838 103.353 119.998 104.06C120.158 104.753 120.225 105.46 120.198 106.18H112.258ZM132.656 96.72H133.916V98.74H132.656V96.72ZM128.136 101.74H126.376V100.68H128.136V99.74C128.136 99.3 128.169 98.8933 128.236 98.52C128.303 98.1467 128.429 97.8267 128.616 97.56C128.803 97.2933 129.056 97.0867 129.376 96.94C129.709 96.7933 130.129 96.72 130.636 96.72C130.823 96.72 130.996 96.7267 131.156 96.74C131.316 96.7533 131.496 96.7733 131.696 96.8V97.88C131.523 97.8533 131.363 97.8333 131.216 97.82C131.069 97.7933 130.923 97.78 130.776 97.78C130.429 97.78 130.163 97.8333 129.976 97.94C129.789 98.0467 129.649 98.1933 129.556 98.38C129.476 98.5533 129.429 98.76 129.416 99C129.403 99.24 129.396 99.5 129.396 99.78V100.68H131.436V101.74H129.396V111H128.136V101.74ZM132.656 100.68H133.916V111H132.656V100.68ZM136.343 100.68H137.503V103.1H137.543C137.863 102.26 138.356 101.613 139.023 101.16C139.703 100.707 140.509 100.5 141.443 100.54V101.8C140.869 101.773 140.349 101.853 139.883 102.04C139.416 102.213 139.009 102.467 138.663 102.8C138.329 103.133 138.069 103.533 137.883 104C137.696 104.453 137.603 104.953 137.603 105.5V111H136.343V100.68ZM148.831 103.7C148.818 103.313 148.738 102.98 148.591 102.7C148.445 102.407 148.245 102.167 147.991 101.98C147.751 101.793 147.471 101.66 147.151 101.58C146.831 101.487 146.491 101.44 146.131 101.44C145.851 101.44 145.565 101.473 145.271 101.54C144.991 101.593 144.731 101.693 144.491 101.84C144.251 101.973 144.058 102.153 143.911 102.38C143.765 102.607 143.691 102.887 143.691 103.22C143.691 103.5 143.758 103.74 143.891 103.94C144.038 104.127 144.218 104.287 144.431 104.42C144.645 104.553 144.878 104.667 145.131 104.76C145.385 104.84 145.618 104.907 145.831 104.96L147.511 105.34C147.871 105.393 148.225 105.493 148.571 105.64C148.931 105.773 149.245 105.953 149.511 106.18C149.791 106.407 150.018 106.687 150.191 107.02C150.365 107.353 150.451 107.747 150.451 108.2C150.451 108.76 150.325 109.24 150.071 109.64C149.818 110.027 149.491 110.347 149.091 110.6C148.705 110.84 148.265 111.013 147.771 111.12C147.278 111.227 146.791 111.28 146.311 111.28C145.098 111.28 144.111 110.993 143.351 110.42C142.605 109.847 142.178 108.927 142.071 107.66H143.331C143.385 108.513 143.691 109.16 144.251 109.6C144.825 110.027 145.531 110.24 146.371 110.24C146.678 110.24 146.991 110.207 147.311 110.14C147.645 110.073 147.951 109.96 148.231 109.8C148.511 109.64 148.738 109.44 148.911 109.2C149.098 108.947 149.191 108.64 149.191 108.28C149.191 107.973 149.125 107.72 148.991 107.52C148.871 107.307 148.705 107.133 148.491 107C148.278 106.853 148.031 106.733 147.751 106.64C147.485 106.547 147.211 106.467 146.931 106.4L145.311 106.04C144.898 105.933 144.518 105.813 144.171 105.68C143.825 105.533 143.518 105.36 143.251 105.16C142.998 104.947 142.798 104.693 142.651 104.4C142.505 104.093 142.431 103.72 142.431 103.28C142.431 102.76 142.545 102.313 142.771 101.94C143.011 101.567 143.318 101.267 143.691 101.04C144.065 100.813 144.478 100.647 144.931 100.54C145.398 100.433 145.858 100.38 146.311 100.38C146.831 100.38 147.311 100.447 147.751 100.58C148.205 100.713 148.598 100.92 148.931 101.2C149.278 101.48 149.551 101.827 149.751 102.24C149.951 102.653 150.065 103.14 150.091 103.7H148.831ZM154.28 100.68H156.38V101.74H154.28V108.7C154.28 109.113 154.333 109.44 154.44 109.68C154.56 109.907 154.847 110.033 155.3 110.06C155.66 110.06 156.02 110.04 156.38 110V111.06C156.193 111.06 156.007 111.067 155.82 111.08C155.633 111.093 155.447 111.1 155.26 111.1C154.42 111.1 153.833 110.94 153.5 110.62C153.167 110.287 153.007 109.68 153.02 108.8V101.74H151.22V100.68H153.02V97.58H154.28V100.68ZM165.764 100.68H167.864V101.74H165.764V108.7C165.764 109.113 165.818 109.44 165.924 109.68C166.044 109.907 166.331 110.033 166.784 110.06C167.144 110.06 167.504 110.04 167.864 110V111.06C167.678 111.06 167.491 111.067 167.304 111.08C167.118 111.093 166.931 111.1 166.744 111.1C165.904 111.1 165.318 110.94 164.984 110.62C164.651 110.287 164.491 109.68 164.504 108.8V101.74H162.704V100.68H164.504V97.58H165.764V100.68ZM174.042 101.44C173.442 101.44 172.916 101.567 172.462 101.82C172.009 102.073 171.629 102.407 171.322 102.82C171.029 103.233 170.802 103.707 170.642 104.24C170.496 104.76 170.422 105.293 170.422 105.84C170.422 106.387 170.496 106.927 170.642 107.46C170.802 107.98 171.029 108.447 171.322 108.86C171.629 109.273 172.009 109.607 172.462 109.86C172.916 110.113 173.442 110.24 174.042 110.24C174.642 110.24 175.169 110.113 175.622 109.86C176.076 109.607 176.449 109.273 176.742 108.86C177.049 108.447 177.276 107.98 177.422 107.46C177.582 106.927 177.662 106.387 177.662 105.84C177.662 105.293 177.582 104.76 177.422 104.24C177.276 103.707 177.049 103.233 176.742 102.82C176.449 102.407 176.076 102.073 175.622 101.82C175.169 101.567 174.642 101.44 174.042 101.44ZM174.042 100.38C174.829 100.38 175.522 100.527 176.122 100.82C176.736 101.113 177.249 101.507 177.662 102C178.076 102.493 178.389 103.073 178.602 103.74C178.816 104.393 178.922 105.093 178.922 105.84C178.922 106.587 178.816 107.293 178.602 107.96C178.389 108.613 178.076 109.187 177.662 109.68C177.249 110.173 176.736 110.567 176.122 110.86C175.522 111.14 174.829 111.28 174.042 111.28C173.256 111.28 172.556 111.14 171.942 110.86C171.342 110.567 170.836 110.173 170.422 109.68C170.009 109.187 169.696 108.613 169.482 107.96C169.269 107.293 169.162 106.587 169.162 105.84C169.162 105.093 169.269 104.393 169.482 103.74C169.696 103.073 170.009 102.493 170.422 102C170.836 101.507 171.342 101.113 171.942 100.82C172.556 100.527 173.256 100.38 174.042 100.38ZM186.362 96.72H187.622V105.68L193.342 100.68H195.022L190.622 104.5L195.322 111H193.742L189.662 105.38L187.622 107.08V111H186.362V96.72ZM196.342 100.68H197.602V102.46H197.642C197.882 101.833 198.309 101.333 198.922 100.96C199.535 100.573 200.209 100.38 200.942 100.38C201.662 100.38 202.262 100.473 202.742 100.66C203.235 100.847 203.629 101.113 203.922 101.46C204.215 101.793 204.422 102.207 204.542 102.7C204.662 103.193 204.722 103.747 204.722 104.36V111H203.462V104.56C203.462 104.12 203.422 103.713 203.342 103.34C203.262 102.953 203.122 102.62 202.922 102.34C202.722 102.06 202.449 101.84 202.102 101.68C201.769 101.52 201.349 101.44 200.842 101.44C200.335 101.44 199.882 101.533 199.482 101.72C199.095 101.893 198.762 102.14 198.482 102.46C198.215 102.767 198.002 103.14 197.842 103.58C197.695 104.007 197.615 104.473 197.602 104.98V111H196.342V100.68ZM211.464 101.44C210.864 101.44 210.338 101.567 209.884 101.82C209.431 102.073 209.051 102.407 208.744 102.82C208.451 103.233 208.224 103.707 208.064 104.24C207.918 104.76 207.844 105.293 207.844 105.84C207.844 106.387 207.918 106.927 208.064 107.46C208.224 107.98 208.451 108.447 208.744 108.86C209.051 109.273 209.431 109.607 209.884 109.86C210.338 110.113 210.864 110.24 211.464 110.24C212.064 110.24 212.591 110.113 213.044 109.86C213.498 109.607 213.871 109.273 214.164 108.86C214.471 108.447 214.698 107.98 214.844 107.46C215.004 106.927 215.084 106.387 215.084 105.84C215.084 105.293 215.004 104.76 214.844 104.24C214.698 103.707 214.471 103.233 214.164 102.82C213.871 102.407 213.498 102.073 213.044 101.82C212.591 101.567 212.064 101.44 211.464 101.44ZM211.464 100.38C212.251 100.38 212.944 100.527 213.544 100.82C214.158 101.113 214.671 101.507 215.084 102C215.498 102.493 215.811 103.073 216.024 103.74C216.238 104.393 216.344 105.093 216.344 105.84C216.344 106.587 216.238 107.293 216.024 107.96C215.811 108.613 215.498 109.187 215.084 109.68C214.671 110.173 214.158 110.567 213.544 110.86C212.944 111.14 212.251 111.28 211.464 111.28C210.678 111.28 209.978 111.14 209.364 110.86C208.764 110.567 208.258 110.173 207.844 109.68C207.431 109.187 207.118 108.613 206.904 107.96C206.691 107.293 206.584 106.587 206.584 105.84C206.584 105.093 206.691 104.393 206.904 103.74C207.118 103.073 207.431 102.493 207.844 102C208.258 101.507 208.764 101.113 209.364 100.82C209.978 100.527 210.678 100.38 211.464 100.38ZM217.178 100.68H218.518L221.158 109.52H221.198L223.718 100.68H225.138L227.658 109.52H227.698L230.338 100.68H231.678L228.358 111H226.978L224.438 102.32H224.398L221.878 111H220.498L217.178 100.68ZM237.568 100.68H238.908L241.548 109.52H241.588L244.108 100.68H245.528L248.048 109.52H248.088L250.728 100.68H252.068L248.748 111H247.368L244.828 102.32H244.788L242.268 111H240.888L237.568 100.68ZM253.412 96.72H254.672V102.46H254.712C254.952 101.833 255.379 101.333 255.992 100.96C256.606 100.573 257.279 100.38 258.012 100.38C258.732 100.38 259.332 100.473 259.812 100.66C260.306 100.847 260.699 101.113 260.992 101.46C261.286 101.793 261.492 102.207 261.612 102.7C261.732 103.193 261.792 103.747 261.792 104.36V111H260.532V104.56C260.532 104.12 260.492 103.713 260.412 103.34C260.332 102.953 260.192 102.62 259.992 102.34C259.792 102.06 259.519 101.84 259.172 101.68C258.839 101.52 258.419 101.44 257.912 101.44C257.406 101.44 256.952 101.533 256.552 101.72C256.166 101.893 255.832 102.14 255.552 102.46C255.286 102.767 255.072 103.14 254.912 103.58C254.766 104.007 254.686 104.473 254.672 104.98V111H253.412V96.72ZM271.595 105.12C271.581 104.64 271.495 104.18 271.335 103.74C271.188 103.3 270.975 102.913 270.695 102.58C270.415 102.233 270.075 101.96 269.675 101.76C269.275 101.547 268.821 101.44 268.315 101.44C267.795 101.44 267.335 101.547 266.935 101.76C266.535 101.96 266.195 102.233 265.915 102.58C265.635 102.913 265.408 103.307 265.235 103.76C265.075 104.2 264.968 104.653 264.915 105.12H271.595ZM264.915 106.18C264.915 106.633 264.975 107.107 265.095 107.6C265.228 108.08 265.435 108.513 265.715 108.9C265.995 109.287 266.348 109.607 266.775 109.86C267.201 110.113 267.715 110.24 268.315 110.24C269.235 110.24 269.955 110 270.475 109.52C270.995 109.04 271.355 108.4 271.555 107.6H272.815C272.548 108.773 272.055 109.68 271.335 110.32C270.628 110.96 269.621 111.28 268.315 111.28C267.501 111.28 266.795 111.14 266.195 110.86C265.608 110.567 265.128 110.173 264.755 109.68C264.381 109.173 264.101 108.593 263.915 107.94C263.741 107.273 263.655 106.573 263.655 105.84C263.655 105.16 263.741 104.493 263.915 103.84C264.101 103.187 264.381 102.607 264.755 102.1C265.128 101.58 265.608 101.167 266.195 100.86C266.795 100.54 267.501 100.38 268.315 100.38C269.141 100.38 269.848 100.547 270.435 100.88C271.021 101.213 271.495 101.653 271.855 102.2C272.228 102.733 272.495 103.353 272.655 104.06C272.815 104.753 272.881 105.46 272.855 106.18H264.915ZM274.526 100.68H275.786V102.46H275.826C276.066 101.833 276.492 101.333 277.106 100.96C277.719 100.573 278.392 100.38 279.126 100.38C279.846 100.38 280.446 100.473 280.926 100.66C281.419 100.847 281.812 101.113 282.106 101.46C282.399 101.793 282.606 102.207 282.726 102.7C282.846 103.193 282.906 103.747 282.906 104.36V111H281.646V104.56C281.646 104.12 281.606 103.713 281.526 103.34C281.446 102.953 281.306 102.62 281.106 102.34C280.906 102.06 280.632 101.84 280.286 101.68C279.952 101.52 279.532 101.44 279.026 101.44C278.519 101.44 278.066 101.533 277.666 101.72C277.279 101.893 276.946 102.14 276.666 102.46C276.399 102.767 276.186 103.14 276.026 103.58C275.879 104.007 275.799 104.473 275.786 104.98V111H274.526V100.68ZM289.814 100.68H291.154L293.794 109.52H293.834L296.354 100.68H297.774L300.294 109.52H300.334L302.974 100.68H304.314L300.994 111H299.614L297.074 102.32H297.034L294.514 111H293.134L289.814 100.68ZM313.099 105.12C313.085 104.64 312.999 104.18 312.839 103.74C312.692 103.3 312.479 102.913 312.199 102.58C311.919 102.233 311.579 101.96 311.179 101.76C310.779 101.547 310.325 101.44 309.819 101.44C309.299 101.44 308.839 101.547 308.439 101.76C308.039 101.96 307.699 102.233 307.419 102.58C307.139 102.913 306.912 103.307 306.739 103.76C306.579 104.2 306.472 104.653 306.419 105.12H313.099ZM306.419 106.18C306.419 106.633 306.479 107.107 306.599 107.6C306.732 108.08 306.939 108.513 307.219 108.9C307.499 109.287 307.852 109.607 308.279 109.86C308.705 110.113 309.219 110.24 309.819 110.24C310.739 110.24 311.459 110 311.979 109.52C312.499 109.04 312.859 108.4 313.059 107.6H314.319C314.052 108.773 313.559 109.68 312.839 110.32C312.132 110.96 311.125 111.28 309.819 111.28C309.005 111.28 308.299 111.14 307.699 110.86C307.112 110.567 306.632 110.173 306.259 109.68C305.885 109.173 305.605 108.593 305.419 107.94C305.245 107.273 305.159 106.573 305.159 105.84C305.159 105.16 305.245 104.493 305.419 103.84C305.605 103.187 305.885 102.607 306.259 102.1C306.632 101.58 307.112 101.167 307.699 100.86C308.299 100.54 309.005 100.38 309.819 100.38C310.645 100.38 311.352 100.547 311.939 100.88C312.525 101.213 312.999 101.653 313.359 102.2C313.732 102.733 313.999 103.353 314.159 104.06C314.319 104.753 314.385 105.46 314.359 106.18H306.419ZM321.596 96.72H322.856V102.46H322.896C323.136 101.833 323.563 101.333 324.176 100.96C324.789 100.573 325.463 100.38 326.196 100.38C326.916 100.38 327.516 100.473 327.996 100.66C328.489 100.847 328.883 101.113 329.176 101.46C329.469 101.793 329.676 102.207 329.796 102.7C329.916 103.193 329.976 103.747 329.976 104.36V111H328.716V104.56C328.716 104.12 328.676 103.713 328.596 103.34C328.516 102.953 328.376 102.62 328.176 102.34C327.976 102.06 327.703 101.84 327.356 101.68C327.023 101.52 326.603 101.44 326.096 101.44C325.589 101.44 325.136 101.533 324.736 101.72C324.349 101.893 324.016 102.14 323.736 102.46C323.469 102.767 323.256 103.14 323.096 103.58C322.949 104.007 322.869 104.473 322.856 104.98V111H321.596V96.72ZM332.238 103.84C332.278 103.24 332.405 102.72 332.618 102.28C332.832 101.84 333.118 101.48 333.478 101.2C333.852 100.92 334.285 100.713 334.778 100.58C335.272 100.447 335.818 100.38 336.418 100.38C336.872 100.38 337.325 100.427 337.778 100.52C338.232 100.6 338.638 100.76 338.998 101C339.358 101.24 339.652 101.58 339.878 102.02C340.105 102.447 340.218 103.007 340.218 103.7V109.18C340.218 109.687 340.465 109.94 340.958 109.94C341.105 109.94 341.238 109.913 341.358 109.86V110.92C341.212 110.947 341.078 110.967 340.958 110.98C340.852 110.993 340.712 111 340.538 111C340.218 111 339.958 110.96 339.758 110.88C339.572 110.787 339.425 110.66 339.318 110.5C339.212 110.34 339.138 110.153 339.098 109.94C339.072 109.713 339.058 109.467 339.058 109.2H339.018C338.792 109.533 338.558 109.833 338.318 110.1C338.092 110.353 337.832 110.567 337.538 110.74C337.258 110.913 336.932 111.047 336.558 111.14C336.198 111.233 335.765 111.28 335.258 111.28C334.778 111.28 334.325 111.22 333.898 111.1C333.485 110.993 333.118 110.82 332.798 110.58C332.492 110.327 332.245 110.013 332.058 109.64C331.885 109.253 331.798 108.8 331.798 108.28C331.798 107.56 331.958 107 332.278 106.6C332.598 106.187 333.018 105.873 333.538 105.66C334.072 105.447 334.665 105.3 335.318 105.22C335.985 105.127 336.658 105.04 337.338 104.96C337.605 104.933 337.838 104.9 338.038 104.86C338.238 104.82 338.405 104.753 338.538 104.66C338.672 104.553 338.772 104.413 338.838 104.24C338.918 104.067 338.958 103.84 338.958 103.56C338.958 103.133 338.885 102.787 338.738 102.52C338.605 102.24 338.412 102.02 338.158 101.86C337.918 101.7 337.632 101.593 337.298 101.54C336.978 101.473 336.632 101.44 336.258 101.44C335.458 101.44 334.805 101.633 334.298 102.02C333.792 102.393 333.525 103 333.498 103.84H332.238ZM338.958 105.36H338.918C338.838 105.507 338.685 105.613 338.458 105.68C338.232 105.747 338.032 105.793 337.858 105.82C337.325 105.913 336.772 106 336.198 106.08C335.638 106.147 335.125 106.253 334.658 106.4C334.192 106.547 333.805 106.76 333.498 107.04C333.205 107.307 333.058 107.693 333.058 108.2C333.058 108.52 333.118 108.807 333.238 109.06C333.372 109.3 333.545 109.513 333.758 109.7C333.972 109.873 334.218 110.007 334.498 110.1C334.778 110.193 335.065 110.24 335.358 110.24C335.838 110.24 336.298 110.167 336.738 110.02C337.178 109.873 337.558 109.66 337.878 109.38C338.212 109.1 338.472 108.76 338.658 108.36C338.858 107.96 338.958 107.507 338.958 107V105.36ZM341.569 100.68H342.969L346.209 109.74H346.249L349.449 100.68H350.749L346.889 111H345.549L341.569 100.68ZM359.407 105.12C359.394 104.64 359.307 104.18 359.147 103.74C359 103.3 358.787 102.913 358.507 102.58C358.227 102.233 357.887 101.96 357.487 101.76C357.087 101.547 356.634 101.44 356.127 101.44C355.607 101.44 355.147 101.547 354.747 101.76C354.347 101.96 354.007 102.233 353.727 102.58C353.447 102.913 353.22 103.307 353.047 103.76C352.887 104.2 352.78 104.653 352.727 105.12H359.407ZM352.727 106.18C352.727 106.633 352.787 107.107 352.907 107.6C353.04 108.08 353.247 108.513 353.527 108.9C353.807 109.287 354.16 109.607 354.587 109.86C355.014 110.113 355.527 110.24 356.127 110.24C357.047 110.24 357.767 110 358.287 109.52C358.807 109.04 359.167 108.4 359.367 107.6H360.627C360.36 108.773 359.867 109.68 359.147 110.32C358.44 110.96 357.434 111.28 356.127 111.28C355.314 111.28 354.607 111.14 354.007 110.86C353.42 110.567 352.94 110.173 352.567 109.68C352.194 109.173 351.914 108.593 351.727 107.94C351.554 107.273 351.467 106.573 351.467 105.84C351.467 105.16 351.554 104.493 351.727 103.84C351.914 103.187 352.194 102.607 352.567 102.1C352.94 101.58 353.42 101.167 354.007 100.86C354.607 100.54 355.314 100.38 356.127 100.38C356.954 100.38 357.66 100.547 358.247 100.88C358.834 101.213 359.307 101.653 359.667 102.2C360.04 102.733 360.307 103.353 360.467 104.06C360.627 104.753 360.694 105.46 360.667 106.18H352.727ZM367.905 100.68H369.165V102.46H369.205C369.445 101.833 369.871 101.333 370.485 100.96C371.098 100.573 371.771 100.38 372.505 100.38C373.225 100.38 373.825 100.473 374.305 100.66C374.798 100.847 375.191 101.113 375.485 101.46C375.778 101.793 375.985 102.207 376.105 102.7C376.225 103.193 376.285 103.747 376.285 104.36V111H375.025V104.56C375.025 104.12 374.985 103.713 374.905 103.34C374.825 102.953 374.685 102.62 374.485 102.34C374.285 102.06 374.011 101.84 373.665 101.68C373.331 101.52 372.911 101.44 372.405 101.44C371.898 101.44 371.445 101.533 371.045 101.72C370.658 101.893 370.325 102.14 370.045 102.46C369.778 102.767 369.565 103.14 369.405 103.58C369.258 104.007 369.178 104.473 369.165 104.98V111H367.905V100.68ZM386.087 105.12C386.073 104.64 385.987 104.18 385.827 103.74C385.68 103.3 385.467 102.913 385.187 102.58C384.907 102.233 384.567 101.96 384.167 101.76C383.767 101.547 383.313 101.44 382.807 101.44C382.287 101.44 381.827 101.547 381.427 101.76C381.027 101.96 380.687 102.233 380.407 102.58C380.127 102.913 379.9 103.307 379.727 103.76C379.567 104.2 379.46 104.653 379.407 105.12H386.087ZM379.407 106.18C379.407 106.633 379.467 107.107 379.587 107.6C379.72 108.08 379.927 108.513 380.207 108.9C380.487 109.287 380.84 109.607 381.267 109.86C381.693 110.113 382.207 110.24 382.807 110.24C383.727 110.24 384.447 110 384.967 109.52C385.487 109.04 385.847 108.4 386.047 107.6H387.307C387.04 108.773 386.547 109.68 385.827 110.32C385.12 110.96 384.113 111.28 382.807 111.28C381.993 111.28 381.287 111.14 380.687 110.86C380.1 110.567 379.62 110.173 379.247 109.68C378.873 109.173 378.593 108.593 378.407 107.94C378.233 107.273 378.147 106.573 378.147 105.84C378.147 105.16 378.233 104.493 378.407 103.84C378.593 103.187 378.873 102.607 379.247 102.1C379.62 101.58 380.1 101.167 380.687 100.86C381.287 100.54 381.993 100.38 382.807 100.38C383.633 100.38 384.34 100.547 384.927 100.88C385.513 101.213 385.987 101.653 386.347 102.2C386.72 102.733 386.987 103.353 387.147 104.06C387.307 104.753 387.373 105.46 387.347 106.18H379.407ZM387.998 100.68H389.338L391.978 109.52H392.018L394.538 100.68H395.958L398.478 109.52H398.518L401.158 100.68H402.498L399.178 111H397.798L395.258 102.32H395.218L392.698 111H391.318L387.998 100.68ZM409.429 100.68H410.589V103.1H410.629C410.949 102.26 411.442 101.613 412.109 101.16C412.789 100.707 413.595 100.5 414.529 100.54V101.8C413.955 101.773 413.435 101.853 412.969 102.04C412.502 102.213 412.095 102.467 411.749 102.8C411.415 103.133 411.155 103.533 410.969 104C410.782 104.453 410.689 104.953 410.689 105.5V111H409.429V100.68ZM422.806 105.12C422.792 104.64 422.706 104.18 422.546 103.74C422.399 103.3 422.186 102.913 421.906 102.58C421.626 102.233 421.286 101.96 420.886 101.76C420.486 101.547 420.032 101.44 419.526 101.44C419.006 101.44 418.546 101.547 418.146 101.76C417.746 101.96 417.406 102.233 417.126 102.58C416.846 102.913 416.619 103.307 416.446 103.76C416.286 104.2 416.179 104.653 416.126 105.12H422.806ZM416.126 106.18C416.126 106.633 416.186 107.107 416.306 107.6C416.439 108.08 416.646 108.513 416.926 108.9C417.206 109.287 417.559 109.607 417.986 109.86C418.412 110.113 418.926 110.24 419.526 110.24C420.446 110.24 421.166 110 421.686 109.52C422.206 109.04 422.566 108.4 422.766 107.6H424.026C423.759 108.773 423.266 109.68 422.546 110.32C421.839 110.96 420.832 111.28 419.526 111.28C418.712 111.28 418.006 111.14 417.406 110.86C416.819 110.567 416.339 110.173 415.966 109.68C415.592 109.173 415.312 108.593 415.126 107.94C414.952 107.273 414.866 106.573 414.866 105.84C414.866 105.16 414.952 104.493 415.126 103.84C415.312 103.187 415.592 102.607 415.966 102.1C416.339 101.58 416.819 101.167 417.406 100.86C418.006 100.54 418.712 100.38 419.526 100.38C420.352 100.38 421.059 100.547 421.646 100.88C422.232 101.213 422.706 101.653 423.066 102.2C423.439 102.733 423.706 103.353 423.866 104.06C424.026 104.753 424.092 105.46 424.066 106.18H416.126ZM425.777 96.72H427.037V111H425.777V96.72ZM436.868 105.12C436.855 104.64 436.768 104.18 436.608 103.74C436.461 103.3 436.248 102.913 435.968 102.58C435.688 102.233 435.348 101.96 434.948 101.76C434.548 101.547 434.095 101.44 433.588 101.44C433.068 101.44 432.608 101.547 432.208 101.76C431.808 101.96 431.468 102.233 431.188 102.58C430.908 102.913 430.681 103.307 430.508 103.76C430.348 104.2 430.241 104.653 430.188 105.12H436.868ZM430.188 106.18C430.188 106.633 430.248 107.107 430.368 107.6C430.501 108.08 430.708 108.513 430.988 108.9C431.268 109.287 431.621 109.607 432.048 109.86C432.475 110.113 432.988 110.24 433.588 110.24C434.508 110.24 435.228 110 435.748 109.52C436.268 109.04 436.628 108.4 436.828 107.6H438.088C437.821 108.773 437.328 109.68 436.608 110.32C435.901 110.96 434.895 111.28 433.588 111.28C432.775 111.28 432.068 111.14 431.468 110.86C430.881 110.567 430.401 110.173 430.028 109.68C429.655 109.173 429.375 108.593 429.188 107.94C429.015 107.273 428.928 106.573 428.928 105.84C428.928 105.16 429.015 104.493 429.188 103.84C429.375 103.187 429.655 102.607 430.028 102.1C430.401 101.58 430.881 101.167 431.468 100.86C432.068 100.54 432.775 100.38 433.588 100.38C434.415 100.38 435.121 100.547 435.708 100.88C436.295 101.213 436.768 101.653 437.128 102.2C437.501 102.733 437.768 103.353 437.928 104.06C438.088 104.753 438.155 105.46 438.128 106.18H430.188ZM439.699 103.84C439.739 103.24 439.866 102.72 440.079 102.28C440.292 101.84 440.579 101.48 440.939 101.2C441.312 100.92 441.746 100.713 442.239 100.58C442.732 100.447 443.279 100.38 443.879 100.38C444.332 100.38 444.786 100.427 445.239 100.52C445.692 100.6 446.099 100.76 446.459 101C446.819 101.24 447.112 101.58 447.339 102.02C447.566 102.447 447.679 103.007 447.679 103.7V109.18C447.679 109.687 447.926 109.94 448.419 109.94C448.566 109.94 448.699 109.913 448.819 109.86V110.92C448.672 110.947 448.539 110.967 448.419 110.98C448.312 110.993 448.172 111 447.999 111C447.679 111 447.419 110.96 447.219 110.88C447.032 110.787 446.886 110.66 446.779 110.5C446.672 110.34 446.599 110.153 446.559 109.94C446.532 109.713 446.519 109.467 446.519 109.2H446.479C446.252 109.533 446.019 109.833 445.779 110.1C445.552 110.353 445.292 110.567 444.999 110.74C444.719 110.913 444.392 111.047 444.019 111.14C443.659 111.233 443.226 111.28 442.719 111.28C442.239 111.28 441.786 111.22 441.359 111.1C440.946 110.993 440.579 110.82 440.259 110.58C439.952 110.327 439.706 110.013 439.519 109.64C439.346 109.253 439.259 108.8 439.259 108.28C439.259 107.56 439.419 107 439.739 106.6C440.059 106.187 440.479 105.873 440.999 105.66C441.532 105.447 442.126 105.3 442.779 105.22C443.446 105.127 444.119 105.04 444.799 104.96C445.066 104.933 445.299 104.9 445.499 104.86C445.699 104.82 445.866 104.753 445.999 104.66C446.132 104.553 446.232 104.413 446.299 104.24C446.379 104.067 446.419 103.84 446.419 103.56C446.419 103.133 446.346 102.787 446.199 102.52C446.066 102.24 445.872 102.02 445.619 101.86C445.379 101.7 445.092 101.593 444.759 101.54C444.439 101.473 444.092 101.44 443.719 101.44C442.919 101.44 442.266 101.633 441.759 102.02C441.252 102.393 440.986 103 440.959 103.84H439.699ZM446.419 105.36H446.379C446.299 105.507 446.146 105.613 445.919 105.68C445.692 105.747 445.492 105.793 445.319 105.82C444.786 105.913 444.232 106 443.659 106.08C443.099 106.147 442.586 106.253 442.119 106.4C441.652 106.547 441.266 106.76 440.959 107.04C440.666 107.307 440.519 107.693 440.519 108.2C440.519 108.52 440.579 108.807 440.699 109.06C440.832 109.3 441.006 109.513 441.219 109.7C441.432 109.873 441.679 110.007 441.959 110.1C442.239 110.193 442.526 110.24 442.819 110.24C443.299 110.24 443.759 110.167 444.199 110.02C444.639 109.873 445.019 109.66 445.339 109.38C445.672 109.1 445.932 108.76 446.119 108.36C446.319 107.96 446.419 107.507 446.419 107V105.36ZM456.37 103.7C456.357 103.313 456.277 102.98 456.13 102.7C455.984 102.407 455.784 102.167 455.53 101.98C455.29 101.793 455.01 101.66 454.69 101.58C454.37 101.487 454.03 101.44 453.67 101.44C453.39 101.44 453.104 101.473 452.81 101.54C452.53 101.593 452.27 101.693 452.03 101.84C451.79 101.973 451.597 102.153 451.45 102.38C451.304 102.607 451.23 102.887 451.23 103.22C451.23 103.5 451.297 103.74 451.43 103.94C451.577 104.127 451.757 104.287 451.97 104.42C452.184 104.553 452.417 104.667 452.67 104.76C452.924 104.84 453.157 104.907 453.37 104.96L455.05 105.34C455.41 105.393 455.764 105.493 456.11 105.64C456.47 105.773 456.784 105.953 457.05 106.18C457.33 106.407 457.557 106.687 457.73 107.02C457.904 107.353 457.99 107.747 457.99 108.2C457.99 108.76 457.864 109.24 457.61 109.64C457.357 110.027 457.03 110.347 456.63 110.6C456.244 110.84 455.804 111.013 455.31 111.12C454.817 111.227 454.33 111.28 453.85 111.28C452.637 111.28 451.65 110.993 450.89 110.42C450.144 109.847 449.717 108.927 449.61 107.66H450.87C450.924 108.513 451.23 109.16 451.79 109.6C452.364 110.027 453.07 110.24 453.91 110.24C454.217 110.24 454.53 110.207 454.85 110.14C455.184 110.073 455.49 109.96 455.77 109.8C456.05 109.64 456.277 109.44 456.45 109.2C456.637 108.947 456.73 108.64 456.73 108.28C456.73 107.973 456.664 107.72 456.53 107.52C456.41 107.307 456.244 107.133 456.03 107C455.817 106.853 455.57 106.733 455.29 106.64C455.024 106.547 454.75 106.467 454.47 106.4L452.85 106.04C452.437 105.933 452.057 105.813 451.71 105.68C451.364 105.533 451.057 105.36 450.79 105.16C450.537 104.947 450.337 104.693 450.19 104.4C450.044 104.093 449.97 103.72 449.97 103.28C449.97 102.76 450.084 102.313 450.31 101.94C450.55 101.567 450.857 101.267 451.23 101.04C451.604 100.813 452.017 100.647 452.47 100.54C452.937 100.433 453.397 100.38 453.85 100.38C454.37 100.38 454.85 100.447 455.29 100.58C455.744 100.713 456.137 100.92 456.47 101.2C456.817 101.48 457.09 101.827 457.29 102.24C457.49 102.653 457.604 103.14 457.63 103.7H456.37ZM467.239 105.12C467.226 104.64 467.139 104.18 466.979 103.74C466.832 103.3 466.619 102.913 466.339 102.58C466.059 102.233 465.719 101.96 465.319 101.76C464.919 101.547 464.466 101.44 463.959 101.44C463.439 101.44 462.979 101.547 462.579 101.76C462.179 101.96 461.839 102.233 461.559 102.58C461.279 102.913 461.052 103.307 460.879 103.76C460.719 104.2 460.612 104.653 460.559 105.12H467.239ZM460.559 106.18C460.559 106.633 460.619 107.107 460.739 107.6C460.872 108.08 461.079 108.513 461.359 108.9C461.639 109.287 461.992 109.607 462.419 109.86C462.846 110.113 463.359 110.24 463.959 110.24C464.879 110.24 465.599 110 466.119 109.52C466.639 109.04 466.999 108.4 467.199 107.6H468.459C468.192 108.773 467.699 109.68 466.979 110.32C466.272 110.96 465.266 111.28 463.959 111.28C463.146 111.28 462.439 111.14 461.839 110.86C461.252 110.567 460.772 110.173 460.399 109.68C460.026 109.173 459.746 108.593 459.559 107.94C459.386 107.273 459.299 106.573 459.299 105.84C459.299 105.16 459.386 104.493 459.559 103.84C459.746 103.187 460.026 102.607 460.399 102.1C460.772 101.58 461.252 101.167 461.839 100.86C462.439 100.54 463.146 100.38 463.959 100.38C464.786 100.38 465.492 100.547 466.079 100.88C466.666 101.213 467.139 101.653 467.499 102.2C467.872 102.733 468.139 103.353 468.299 104.06C468.459 104.753 468.526 105.46 468.499 106.18H460.559ZM476.37 103.7C476.357 103.313 476.277 102.98 476.13 102.7C475.984 102.407 475.784 102.167 475.53 101.98C475.29 101.793 475.01 101.66 474.69 101.58C474.37 101.487 474.03 101.44 473.67 101.44C473.39 101.44 473.104 101.473 472.81 101.54C472.53 101.593 472.27 101.693 472.03 101.84C471.79 101.973 471.597 102.153 471.45 102.38C471.304 102.607 471.23 102.887 471.23 103.22C471.23 103.5 471.297 103.74 471.43 103.94C471.577 104.127 471.757 104.287 471.97 104.42C472.184 104.553 472.417 104.667 472.67 104.76C472.924 104.84 473.157 104.907 473.37 104.96L475.05 105.34C475.41 105.393 475.764 105.493 476.11 105.64C476.47 105.773 476.784 105.953 477.05 106.18C477.33 106.407 477.557 106.687 477.73 107.02C477.904 107.353 477.99 107.747 477.99 108.2C477.99 108.76 477.864 109.24 477.61 109.64C477.357 110.027 477.03 110.347 476.63 110.6C476.244 110.84 475.804 111.013 475.31 111.12C474.817 111.227 474.33 111.28 473.85 111.28C472.637 111.28 471.65 110.993 470.89 110.42C470.144 109.847 469.717 108.927 469.61 107.66H470.87C470.924 108.513 471.23 109.16 471.79 109.6C472.364 110.027 473.07 110.24 473.91 110.24C474.217 110.24 474.53 110.207 474.85 110.14C475.184 110.073 475.49 109.96 475.77 109.8C476.05 109.64 476.277 109.44 476.45 109.2C476.637 108.947 476.73 108.64 476.73 108.28C476.73 107.973 476.664 107.72 476.53 107.52C476.41 107.307 476.244 107.133 476.03 107C475.817 106.853 475.57 106.733 475.29 106.64C475.024 106.547 474.75 106.467 474.47 106.4L472.85 106.04C472.437 105.933 472.057 105.813 471.71 105.68C471.364 105.533 471.057 105.36 470.79 105.16C470.537 104.947 470.337 104.693 470.19 104.4C470.044 104.093 469.97 103.72 469.97 103.28C469.97 102.76 470.084 102.313 470.31 101.94C470.55 101.567 470.857 101.267 471.23 101.04C471.604 100.813 472.017 100.647 472.47 100.54C472.937 100.433 473.397 100.38 473.85 100.38C474.37 100.38 474.85 100.447 475.29 100.58C475.744 100.713 476.137 100.92 476.47 101.2C476.817 101.48 477.09 101.827 477.29 102.24C477.49 102.653 477.604 103.14 477.63 103.7H476.37Z" fill="white"/>
<rect x="925.5" y="50.5" width="291" height="63" fill="#060606"/>
<rect x="925.5" y="50.5" width="291" height="63" stroke="url(#paint0_linear_164_4292)"/>
<path d="M941.859 82.24H944.359C944.359 84.44 945.979 85.3 947.979 85.3C950.179 85.3 950.999 84.22 950.999 83.14C950.999 82.04 950.399 81.6 949.819 81.38C948.819 81 947.519 80.74 945.559 80.2C943.119 79.54 942.399 78.06 942.399 76.58C942.399 73.72 945.039 72.38 947.619 72.38C950.599 72.38 953.099 73.96 953.099 76.94H950.599C950.479 75.1 949.239 74.42 947.519 74.42C946.359 74.42 944.899 74.84 944.899 76.28C944.899 77.28 945.579 77.84 946.599 78.12C946.819 78.18 949.979 79 950.719 79.22C952.599 79.78 953.499 81.38 953.499 82.86C953.499 86.06 950.659 87.34 947.819 87.34C944.559 87.34 941.919 85.78 941.859 82.24ZM955.428 87V76.66H957.708V87H955.428ZM955.428 74.88V72.72H957.708V74.88H955.428ZM964.692 85.2C966.712 85.2 967.472 83.36 967.472 81.6C967.472 79.82 966.672 78.18 964.692 78.18C962.672 78.18 961.972 80.06 961.972 81.78C961.972 83.48 962.792 85.2 964.692 85.2ZM969.752 76.66V86.46C969.752 89.56 967.932 91.1 964.672 91.1C962.592 91.1 960.252 90.3 960.052 87.88H962.332C962.612 89.18 963.652 89.4 964.812 89.4C966.652 89.4 967.472 88.46 967.472 86.76V85.18H967.432C966.792 86.32 965.612 87 964.332 87C961.052 87 959.692 84.52 959.692 81.56C959.692 78.78 961.432 76.38 964.372 76.38C965.672 76.38 966.852 76.92 967.432 78.08H967.472V76.66H969.752ZM972.048 87V76.66H974.208V78.18L974.248 78.22C974.928 77.08 976.108 76.38 977.468 76.38C979.708 76.38 981.128 77.58 981.128 79.9V87H978.848V80.5C978.808 78.88 978.168 78.18 976.828 78.18C975.308 78.18 974.328 79.38 974.328 80.9V87H972.048ZM989.098 87V76.66H991.258V78.1H991.318C991.998 77.08 992.858 76.38 994.498 76.38C995.758 76.38 996.938 76.92 997.398 78.1C998.158 77.04 999.138 76.38 1000.64 76.38C1002.82 76.38 1004.1 77.34 1004.1 79.86V87H1001.82V80.96C1001.82 79.32 1001.72 78.18 999.938 78.18C998.398 78.18 997.738 79.2 997.738 80.94V87H995.458V80.36C995.458 78.94 995.018 78.18 993.638 78.18C992.458 78.18 991.378 79.14 991.378 80.86V87H989.098ZM1015.88 82.42H1008.28C1008.28 84.04 1009.16 85.48 1011.06 85.48C1012.38 85.48 1013.18 84.9 1013.58 83.76H1015.74C1015.24 86.02 1013.32 87.28 1011.06 87.28C1007.82 87.28 1006 85.02 1006 81.84C1006 78.9 1007.92 76.38 1011 76.38C1014.26 76.38 1016.26 79.32 1015.88 82.42ZM1008.28 80.92H1013.6C1013.52 79.48 1012.54 78.18 1011 78.18C1009.42 78.18 1008.34 79.38 1008.28 80.92ZM1032.26 76.66V87H1030.02V85.56H1029.98C1029.42 86.6 1028.18 87.28 1027.04 87.28C1024.34 87.28 1023.18 85.92 1023.18 83.22V76.66H1025.46V83C1025.46 84.82 1026.2 85.48 1027.44 85.48C1029.34 85.48 1029.98 84.26 1029.98 82.66V76.66H1032.26ZM1042.68 81.84C1042.68 79.96 1041.7 78.18 1039.82 78.18C1037.9 78.18 1036.92 79.64 1036.92 81.84C1036.92 83.92 1037.98 85.48 1039.82 85.48C1041.9 85.48 1042.68 83.64 1042.68 81.84ZM1034.72 90.82V76.66H1036.88V78.06H1036.92C1037.56 76.88 1038.8 76.38 1040.12 76.38C1043.38 76.38 1044.96 78.86 1044.96 81.88C1044.96 84.66 1043.56 87.28 1040.5 87.28C1039.18 87.28 1037.76 86.8 1037.04 85.66H1037V90.82H1034.72ZM1051.44 78.36V76.66H1053.14V75.8C1053.14 73.16 1054.52 72.72 1056 72.72C1056.72 72.72 1057.24 72.76 1057.6 72.86V74.64C1057.3 74.56 1057 74.52 1056.54 74.52C1055.92 74.52 1055.42 74.74 1055.42 75.6V76.66H1057.36V78.36H1055.42V87H1053.14V78.36H1051.44ZM1063.51 85.48C1065.55 85.48 1066.45 83.62 1066.45 81.82C1066.45 80.04 1065.55 78.18 1063.51 78.18C1061.47 78.18 1060.57 80.04 1060.57 81.82C1060.57 83.62 1061.47 85.48 1063.51 85.48ZM1063.51 87.28C1060.19 87.28 1058.29 85 1058.29 81.82C1058.29 78.66 1060.19 76.38 1063.51 76.38C1066.83 76.38 1068.73 78.66 1068.73 81.82C1068.73 85 1066.83 87.28 1063.51 87.28ZM1070.62 87V76.66H1072.76V78.66H1072.8C1073.06 77.56 1074.42 76.38 1075.82 76.38C1076.34 76.38 1076.48 76.42 1076.68 76.44V78.64C1076.36 78.6 1076.02 78.54 1075.7 78.54C1074.14 78.54 1072.9 79.8 1072.9 82.08V87H1070.62ZM1082.2 78.36V76.66H1083.9V75.8C1083.9 73.16 1085.28 72.72 1086.76 72.72C1087.48 72.72 1088 72.76 1088.36 72.86V74.64C1088.06 74.56 1087.76 74.52 1087.3 74.52C1086.68 74.52 1086.18 74.74 1086.18 75.6V76.66H1088.12V78.36H1086.18V87H1083.9V78.36H1082.2ZM1089.53 87V76.66H1091.67V78.66H1091.71C1091.97 77.56 1093.33 76.38 1094.73 76.38C1095.25 76.38 1095.39 76.42 1095.59 76.44V78.64C1095.27 78.6 1094.93 78.54 1094.61 78.54C1093.05 78.54 1091.81 79.8 1091.81 82.08V87H1089.53ZM1105.59 82.42H1097.99C1097.99 84.04 1098.87 85.48 1100.77 85.48C1102.09 85.48 1102.89 84.9 1103.29 83.76H1105.45C1104.95 86.02 1103.03 87.28 1100.77 87.28C1097.53 87.28 1095.71 85.02 1095.71 81.84C1095.71 78.9 1097.63 76.38 1100.71 76.38C1103.97 76.38 1105.97 79.32 1105.59 82.42ZM1097.99 80.92H1103.31C1103.23 79.48 1102.25 78.18 1100.71 78.18C1099.13 78.18 1098.05 79.38 1097.99 80.92ZM1116.7 82.42H1109.1C1109.1 84.04 1109.98 85.48 1111.88 85.48C1113.2 85.48 1114 84.9 1114.4 83.76H1116.56C1116.06 86.02 1114.14 87.28 1111.88 87.28C1108.64 87.28 1106.82 85.02 1106.82 81.84C1106.82 78.9 1108.74 76.38 1111.82 76.38C1115.08 76.38 1117.08 79.32 1116.7 82.42ZM1109.1 80.92H1114.42C1114.34 79.48 1113.36 78.18 1111.82 78.18C1110.24 78.18 1109.16 79.38 1109.1 80.92ZM1118.77 76.84V72.72H1121.27V76.84L1120.61 83.02H1119.43L1118.77 76.84ZM1118.67 87V84.5H1121.35V87H1118.67Z" fill="#F6F6F6"/>
<g clip-path="url(#clip0_164_4292)">
<path d="M1167.27 72.2095C1166.97 71.9223 1166.5 71.9315 1166.21 72.2301C1165.92 72.5286 1165.93 73.0034 1166.23 73.2905L1174.5 81.25H1155.75C1155.34 81.25 1155 81.5858 1155 82C1155 82.4142 1155.34 82.75 1155.75 82.75H1174.5L1166.23 90.7085C1165.93 90.9957 1165.92 91.4705 1166.21 91.769C1166.5 92.0675 1166.97 92.0767 1167.27 91.7896L1176.7 82.7202C1177.11 82.3268 1177.11 81.6723 1176.7 81.2788L1167.27 72.2095Z" fill="#F6F6F6"/>
</g>
<defs>
<linearGradient id="paint0_linear_164_4292" x1="845.613" y1="154.96" x2="1161.44" y2="-10.2065" gradientUnits="userSpaceOnUse">
<stop stop-color="#FF00C7"/>
<stop offset="1" stop-color="#00B4D8"/>
</linearGradient>
<clipPath id="clip0_164_4292">
<rect width="70" height="12" fill="white" transform="translate(1131 76)"/>
</clipPath>
</defs>
</svg>
